<svg width="48" height="48" viewBox="0 0 48 48" fill="none" xmlns="http://www.w3.org/2000/svg">
<path d="M37.9921 28.5916C39.8761 26.1309 40.8956 23.1276 40.8956 20.0393V19.7182C40.9021 19.5365 40.9057 19.3548 40.9057 19.1712C40.9057 10.1152 33.4949 2.77289 24.3535 2.77289C15.2121 2.77289 7.80225 10.1152 7.80225 19.1712C7.80225 19.4488 7.80955 19.7245 7.82323 19.9986C7.82323 23.0868 8.8428 26.0901 10.7268 28.5509L22.5644 44.014C23.4736 45.2014 25.2763 45.2014 26.1855 44.014L37.9921 28.5916Z" fill="#975DF8"/>
<path d="M24.3541 25.4943C28.0106 25.4943 30.9748 22.5301 30.9748 18.8736C30.9748 15.2171 28.0106 12.2529 24.3541 12.2529C20.6976 12.2529 17.7334 15.2171 17.7334 18.8736C17.7334 22.5301 20.6976 25.4943 24.3541 25.4943Z" fill="#78E9D8"/>
<path d="M24.3541 45.8074C34.4095 45.8074 42.561 43.7838 42.561 41.2876C42.561 38.7914 34.4095 36.7678 24.3541 36.7678C14.2987 36.7678 6.14722 38.7914 6.14722 41.2876C6.14722 43.7838 14.2987 45.8074 24.3541 45.8074Z" fill="#78E9D8"/>
<path fill-rule="evenodd" clip-rule="evenodd" d="M31.4592 37.1248C29.276 36.8949 26.8747 36.7678 24.3537 36.7678C21.8478 36.7678 19.46 36.8935 17.2871 37.1209L22.5641 44.014C23.4733 45.2014 25.2761 45.2014 26.1852 44.014L31.4592 37.1248Z" fill="#6139FF"/>
</svg>
