<svg width="48" height="48" viewBox="0 0 48 48" fill="none" xmlns="http://www.w3.org/2000/svg">
<g clip-path="url(#clip0_372_2840)">
<path fill-rule="evenodd" clip-rule="evenodd" d="M24.8103 2.32171C24.3527 1.89276 23.6471 1.89276 23.1897 2.32171L0.386299 23.6986C-0.412113 24.4472 0.109732 25.801 1.19665 25.801H8.07679V44.7881C8.07679 45.4575 8.61147 46 9.27104 46H38.729C39.3887 46 39.9233 45.4575 39.9233 44.7881V25.801H46.8033C47.8903 25.801 48.4122 24.4472 47.6136 23.6986L24.8103 2.32171Z" fill="#975DF8"/>
<path d="M18 35.2C18 34.5372 18.5372 34 19.2 34H28.8C29.4626 34 30 34.5372 30 35.2V46H18V35.2Z" fill="white"/>
<path d="M18 38H30V46H18V38Z" fill="#78E9D8"/>
</g>
<defs>
<clipPath id="clip0_372_2840">
<rect width="48" height="48" fill="white"/>
</clipPath>
</defs>
</svg>
