<svg width="48" height="48" viewBox="0 0 48 48" fill="none" xmlns="http://www.w3.org/2000/svg">
<path d="M40.7485 36.5606L24.0738 44.1312C24.0102 44.1598 23.9382 44.1592 23.8752 44.1292L7.95566 36.5621C7.86273 36.5181 7.80225 36.4168 7.80225 36.3055V14.3591H40.9057V36.3021C40.9057 36.4153 40.8433 36.5174 40.7485 36.5606Z" fill="#975DF8"/>
<path fill-rule="evenodd" clip-rule="evenodd" d="M7.80225 14.3591V36.3055C7.80225 36.4168 7.86273 36.5181 7.95566 36.5621L23.8752 44.1292C23.9382 44.1592 24.0102 44.1598 24.0738 44.1312L24.2214 44.0642V14.3591H7.80225Z" fill="#6139FF"/>
<path d="M25.4611 24.0622C25.108 24.2097 24.727 24.2872 24.3415 24.2902H24.3109C23.9137 24.2908 23.5201 24.2115 23.1564 24.0586L1.60584 14.9623C1.34783 14.8588 1.1804 14.6171 1.18165 14.3505C1.18227 14.0838 1.35095 13.8434 1.60959 13.741L23.3226 4.6745C23.7169 4.51023 24.1429 4.42631 24.5734 4.4281H24.5696H24.6039C25.0231 4.43406 25.4374 4.52215 25.8203 4.68581L47.1005 13.7339C47.3584 13.8368 47.5265 14.0779 47.5265 14.3445C47.5265 14.6112 47.3584 14.8516 47.1005 14.9552L25.4611 24.0622Z" fill="#975DF8"/>
<path d="M23.9566 34.3178C24.2406 34.3178 24.5245 34.2631 24.7893 34.1535L40.9056 27.4878V23.3543L23.9707 30.3582L7.80225 23.3575V27.5195L23.0896 34.1389C23.3646 34.2579 23.6607 34.3178 23.9566 34.3178Z" fill="#78E9D8"/>
<path fill-rule="evenodd" clip-rule="evenodd" d="M7.80225 23.3575V27.5195L23.0896 34.1389C23.3646 34.2581 23.6607 34.3178 23.9566 34.3178C24.0452 34.3178 24.1335 34.3125 24.2214 34.3019V30.2544L23.9707 30.3582L7.80225 23.3575Z" fill="#26E1BF"/>
<path d="M44.1867 14.3591C44.9176 14.3591 45.5108 14.8557 45.5108 15.4675V29.8025C45.5108 30.4143 44.9176 30.9108 44.1867 30.9108C43.4558 30.9108 42.8625 30.4143 42.8625 29.8025V15.4675C42.8625 14.8557 43.4558 14.3591 44.1867 14.3591Z" fill="#975DF8"/>
</svg>
