<svg width="194" height="42" viewBox="0 0 194 42" fill="none" xmlns="http://www.w3.org/2000/svg">
<rect width="41.5518" height="41.5517" rx="9.479" fill="#92D45D"/>
<path d="M29.9744 31.8019C32.4844 31.8019 34.5191 31.0388 34.5191 30.0976C34.5191 29.1563 32.4844 28.3933 29.9744 28.3933C27.4644 28.3933 25.4296 29.1563 25.4296 30.0976C25.4296 31.0388 27.4644 31.8019 29.9744 31.8019Z" fill="#71B739"/>
<path d="M14.0887 34.9416C17.8537 34.9416 20.9058 33.9242 20.9058 32.6692C20.9058 31.4142 17.8537 30.3968 14.0887 30.3968C10.3237 30.3968 7.27158 31.4142 7.27158 32.6692C7.27158 33.9242 10.3237 34.9416 14.0887 34.9416Z" fill="#71B739"/>
<path fill-rule="evenodd" clip-rule="evenodd" d="M13.7857 6.57886C7.51074 6.57886 2.42386 11.6657 2.42386 17.9407C2.42386 21.6732 3.76383 23.5954 6.09594 26.286C7.80591 28.2588 10.8736 31.0289 11.3384 31.4461C11.3715 31.4758 11.4027 31.5051 11.4346 31.5351L11.4582 31.5572C12.7666 32.7834 14.8048 32.7845 16.1146 31.56L16.1385 31.5376C16.1708 31.5073 16.2024 31.4777 16.236 31.4477C16.7052 31.0277 19.7948 28.2451 21.5749 26.2021C22.1351 25.5592 22.6337 24.9584 23.0677 24.3646C23.219 24.5455 23.3767 24.7298 23.5405 24.9187C24.9085 26.497 27.3626 28.7131 27.7345 29.0468C27.761 29.0706 27.7859 29.094 27.8115 29.118L27.8303 29.1357C28.877 30.1166 30.5076 30.1176 31.5554 29.1379L31.5746 29.12L31.5747 29.1199C31.6005 29.0957 31.6257 29.0721 31.6525 29.0481C32.0279 28.7121 34.4996 26.486 35.9237 24.8516C37.771 22.7315 38.7818 21.1833 38.7818 18.2425C38.7818 13.2225 34.7123 9.15302 29.6923 9.15302C27.2106 9.15302 24.9612 10.1476 23.3209 11.7599C21.2953 8.64141 17.7814 6.57886 13.7857 6.57886ZM13.7857 24.761C17.5507 24.761 20.6028 21.7088 20.6028 17.9439C20.6028 14.1789 17.5507 11.1268 13.7857 11.1268C10.0207 11.1268 6.9686 14.1789 6.9686 17.9439C6.9686 21.7088 10.0207 24.761 13.7857 24.761Z" fill="white"/>
<path d="M35.1459 18.2654C35.1459 21.2774 32.7042 23.7191 29.6923 23.7191C26.6803 23.7191 24.2386 21.2774 24.2386 18.2654C24.2386 15.2535 26.6803 12.8118 29.6923 12.8118C32.7042 12.8118 35.1459 15.2535 35.1459 18.2654Z" fill="#07AFED"/>
<path d="M27.2832 16.4629C27.2832 17.0313 27.0095 17.4921 26.6719 17.4921C26.3343 17.4921 26.0606 17.0313 26.0606 16.4629C26.0606 15.8945 26.3343 15.4337 26.6719 15.4337C27.0095 15.4337 27.2832 15.8945 27.2832 16.4629Z" fill="black"/>
<path d="M30.9098 17.2571C31.2998 17.2571 31.6159 16.7249 31.6159 16.0683C31.6159 15.4118 31.2998 14.8796 30.9098 14.8796C30.5198 14.8796 30.2037 15.4118 30.2037 16.0683C30.2037 16.7249 30.5198 17.2571 30.9098 17.2571Z" fill="black"/>
<path d="M27.8371 18.7408C27.6528 18.7654 27.5121 18.9233 27.5324 19.1082C27.6371 20.0623 28.2106 20.6597 29.0348 20.6597C29.851 20.6597 30.4243 19.9318 30.5377 18.801C30.5601 18.5776 30.3605 18.4038 30.1381 18.4335L27.8371 18.7408Z" fill="black"/>
<path d="M12.3112 16.055C12.7518 16.055 13.109 15.4598 13.109 14.7255C13.109 13.9912 12.7518 13.396 12.3112 13.396C11.8707 13.396 11.5135 13.9912 11.5135 14.7255C11.5135 15.4598 11.8707 16.055 12.3112 16.055Z" fill="black"/>
<path d="M16.954 18.2188C17.2828 18.2815 17.5197 18.5809 17.4583 18.9099C17.1621 20.4961 16.0817 21.4318 14.6222 21.3412C13.1755 21.2514 12.2326 19.9683 12.1399 18.057C12.1205 17.6571 12.4942 17.3687 12.8875 17.4436L16.954 18.2188Z" fill="black"/>
<path d="M18.2933 16.121C18.5086 16.269 18.5632 16.5635 18.4152 16.7788C18.2672 16.9941 17.9727 17.0487 17.7574 16.9007L16.5265 16.0546C16.3805 15.9543 16.3028 15.7808 16.3252 15.605C16.3476 15.4293 16.4663 15.2808 16.6328 15.2202L17.9623 14.7368C18.2078 14.6475 18.4792 14.7741 18.5685 15.0197C18.6578 15.2652 18.5311 15.5366 18.2856 15.6259L17.8195 15.7954L18.2933 16.121Z" fill="black"/>
<path fill-rule="evenodd" clip-rule="evenodd" d="M21.5119 17.9436C21.5119 22.2106 18.0528 25.6696 13.7858 25.6696C9.5188 25.6696 6.05972 22.2106 6.05972 17.9436C6.05972 13.6766 9.5188 10.2176 13.7858 10.2176C18.0528 10.2176 21.5119 13.6766 21.5119 17.9436ZM13.7858 24.7607C17.5508 24.7607 20.6029 21.7086 20.6029 17.9436C20.6029 14.1786 17.5508 11.1265 13.7858 11.1265C10.0208 11.1265 6.96867 14.1786 6.96867 17.9436C6.96867 21.7086 10.0208 24.7607 13.7858 24.7607Z" fill="black"/>
<path fill-rule="evenodd" clip-rule="evenodd" d="M11.3384 31.4461C11.3715 31.4758 11.4027 31.5051 11.4346 31.5351L11.4582 31.5572C12.7666 32.7834 14.8048 32.7845 16.1146 31.56L16.1385 31.5376C16.1708 31.5073 16.2024 31.4777 16.236 31.4477C16.7052 31.0277 19.7948 28.2451 21.5749 26.2021C22.1351 25.5592 22.6337 24.9584 23.0677 24.3646C23.219 24.5455 23.3767 24.7298 23.5405 24.9187C24.9085 26.497 27.3627 28.7131 27.7345 29.0468C27.761 29.0706 27.7859 29.094 27.8114 29.118L27.8303 29.1357C28.8771 30.1166 30.5076 30.1176 31.5555 29.1379L31.5746 29.1201C31.6004 29.0958 31.6257 29.0721 31.6525 29.0481C32.0279 28.7121 34.4996 26.486 35.9237 24.8516C37.771 22.7315 38.7818 21.1833 38.7818 18.2425C38.7818 13.2225 34.7123 9.15302 29.6923 9.15302C27.2106 9.15302 24.9612 10.1476 23.3209 11.7599C21.2953 8.64141 17.7814 6.57886 13.7857 6.57886C7.51074 6.57886 2.42386 11.6657 2.42386 17.9407C2.42386 21.6732 3.76383 23.5954 6.09594 26.286C7.80592 28.2588 10.8736 31.0289 11.3384 31.4461ZM23.7996 12.5682C24.118 13.1603 24.3853 13.7838 24.5958 14.433C25.7562 12.883 27.6071 11.88 29.6923 11.88C33.2063 11.88 36.055 14.7286 36.055 18.2426C36.055 21.7566 33.2063 24.6052 29.6923 24.6052C27.5331 24.6052 25.6251 23.5297 24.4748 21.8851C24.2418 22.4771 23.9498 23.0342 23.6014 23.5841C23.7951 23.8201 24.0036 24.0652 24.2274 24.3234C25.5515 25.8511 27.9617 28.0294 28.3416 28.3703C28.3767 28.4018 28.4111 28.4342 28.4368 28.4583L28.4519 28.4725C29.1493 29.1261 30.2366 29.1267 30.9347 28.474L30.9498 28.4598C30.9758 28.4354 31.0108 28.4026 31.0464 28.3708C31.4288 28.0285 33.8575 25.8393 35.2384 24.2545C36.152 23.206 36.7968 22.3666 37.2243 21.4653C37.6422 20.5841 37.8729 19.5981 37.8729 18.2425C37.8729 13.7245 34.2103 10.062 29.6923 10.062C27.3778 10.062 25.2878 11.0232 23.7996 12.5682ZM24.8402 20.735C25.7453 22.4935 27.5783 23.6963 29.6923 23.6963C32.7043 23.6963 35.146 21.2546 35.146 18.2426C35.146 15.2306 32.7043 12.7889 29.6923 12.7889C27.6315 12.7889 25.8376 13.932 24.9101 15.6188C25.0658 16.3683 25.1476 17.145 25.1476 17.9407C25.1476 18.9963 25.0434 19.9083 24.8402 20.735ZM13.7857 7.4878C8.01274 7.4878 3.33281 12.1677 3.33281 17.9407C3.33281 19.686 3.64342 20.9607 4.20218 22.1053C4.77245 23.2736 5.62089 24.3502 6.78279 25.6906C8.44894 27.6129 11.4726 30.3452 11.9455 30.7696C11.9872 30.8071 12.0279 30.8453 12.0601 30.8756L12.0797 30.894C13.0388 31.7928 14.5338 31.7936 15.4939 30.896L15.5137 30.8775L15.5139 30.8772C15.5465 30.8467 15.5876 30.8081 15.6298 30.7704C16.106 30.3442 19.1527 27.5984 20.8896 25.605C22.0341 24.2915 22.8576 23.2228 23.4059 22.0666C23.9447 20.9305 24.2386 19.6639 24.2386 17.9407C24.2386 12.1677 19.5587 7.4878 13.7857 7.4878Z" fill="black"/>
<path d="M65.3749 2.49986L62.12 14.6191H60.6657L57.6705 4.75058L54.658 14.6191H53.2037L49.9488 2.49986H51.5416L54.0001 12.4377L56.978 2.49986H58.4323L61.4101 12.455L63.8686 2.49986H65.3749ZM69.6668 5.70281C72.1426 5.70281 73.8912 7.45145 73.8912 10.2562C73.8912 13.0783 72.1426 14.8096 69.6668 14.8096C67.2083 14.8096 65.4597 13.0783 65.4597 10.2562C65.4597 7.45145 67.2083 5.70281 69.6668 5.70281ZM72.4196 10.2562C72.4196 8.14398 71.225 7.01862 69.6495 7.01862C68.0047 7.01862 66.9313 8.26517 66.9313 10.2562C66.9313 12.3684 68.1259 13.4938 69.7014 13.4938C71.3462 13.4938 72.4196 12.2472 72.4196 10.2562ZM79.8109 5.70281C81.6115 5.70281 82.8927 6.77623 82.8927 8.68069V14.6191H81.4557V8.8192C81.4557 7.86697 80.8843 7.00131 79.5512 7.00131C77.993 7.00131 76.9715 8.19592 76.9715 10.135V14.6191H75.5345V5.85863H76.9542V7.3822C77.4563 6.42997 78.3393 5.70281 79.8109 5.70281ZM92.7931 2.30941V14.6191H91.4081V12.9051C90.9926 13.9612 90.0576 14.8096 88.4129 14.8096C85.712 14.8096 84.4481 12.5415 84.4481 10.2562C84.4481 7.98816 85.7293 5.70281 88.4302 5.70281C89.9191 5.70281 90.8887 6.39534 91.3561 7.29563V2.30941H92.7931ZM88.586 13.4765C90.4732 13.4765 91.3215 11.8836 91.3215 10.1869C91.3215 8.50756 90.4732 6.98399 88.6033 6.98399C86.7162 6.98399 85.9198 8.5595 85.9198 10.2389C85.9198 11.9356 86.7162 13.4765 88.586 13.4765ZM102.353 10.6025H95.8435C95.8955 12.5762 97.0728 13.5284 98.579 13.5284C99.6697 13.5284 100.57 13.009 100.864 12.0741H102.284C101.834 13.9439 100.172 14.8096 98.5098 14.8096C96.4149 14.8096 94.4411 13.3726 94.4411 10.2389C94.4411 7.08787 96.4322 5.70281 98.5271 5.70281C100.622 5.70281 102.353 7.05325 102.353 9.92725V10.6025ZM98.4924 6.94937C97.2286 6.94937 96.0686 7.6419 95.8781 9.44248H100.916C100.916 7.91891 99.9121 6.94937 98.4924 6.94937ZM108.511 5.77206V7.13981H108.112C106.398 7.13981 105.429 8.10935 105.429 10.0658V14.6191H103.992V5.85863H105.412V7.3822C105.862 6.30878 106.797 5.77206 108.095 5.77206H108.511ZM113.031 9.65024C114.433 9.85799 116.372 10.0484 116.372 12.0568C116.372 13.9266 114.676 14.8096 112.841 14.8096C110.919 14.8096 109.205 13.8574 109.032 11.8836H110.521C110.694 13.0436 111.75 13.5284 112.944 13.5284C114.035 13.5284 114.849 13.1129 114.849 12.2472C114.849 11.3816 114.052 11.1738 113.169 11.0353C111.629 10.7929 109.257 10.5852 109.257 8.33443C109.257 6.56847 110.746 5.70281 112.598 5.70281C114.433 5.70281 116.113 6.55116 116.13 8.47293H114.658C114.641 7.43414 113.654 6.98399 112.598 6.98399C111.611 6.98399 110.746 7.36488 110.746 8.26517C110.746 9.25203 111.767 9.45979 113.031 9.65024ZM122.201 5.70281C124.002 5.70281 125.283 6.77623 125.283 8.68069V14.6191H123.846V8.8192C123.846 7.86697 123.275 7.00131 121.942 7.00131C120.383 7.00131 119.362 8.19592 119.362 10.135V14.6191H117.925V2.30941H119.362V7.41682C119.864 6.44728 120.73 5.70281 122.201 5.70281ZM130.994 5.70281C132.898 5.70281 134.127 6.53385 134.127 8.49025V14.6191H132.725V13.1995C131.929 14.4633 130.596 14.8096 129.626 14.8096C128.102 14.8096 126.839 13.9439 126.839 12.2645C126.839 10.1696 128.691 9.82337 129.488 9.68486L131.219 9.39054C132.119 9.23472 132.708 9.06158 132.708 8.23055C132.708 7.34757 131.998 6.96668 130.925 6.96668C129.574 6.96668 128.795 7.55533 128.57 8.50756H127.116C127.375 6.68967 128.968 5.70281 130.994 5.70281ZM132.69 10.0658C132.275 10.2562 131.929 10.3428 131.202 10.464L130.145 10.6371C129.262 10.7756 128.293 10.966 128.293 12.1433C128.293 13.1648 129.02 13.5284 129.92 13.5284C131.305 13.5284 132.69 12.6454 132.69 10.8622V10.0658ZM140.807 5.77206V7.13981H140.408C138.694 7.13981 137.725 8.10935 137.725 10.0658V14.6191H136.288V5.85863H137.708V7.3822C138.158 6.30878 139.093 5.77206 140.391 5.77206H140.807ZM149.157 10.6025H142.647C142.699 12.5762 143.877 13.5284 145.383 13.5284C146.474 13.5284 147.374 13.009 147.668 12.0741H149.088C148.638 13.9439 146.976 14.8096 145.314 14.8096C143.219 14.8096 141.245 13.3726 141.245 10.2389C141.245 7.08787 143.236 5.70281 145.331 5.70281C147.426 5.70281 149.157 7.05325 149.157 9.92725V10.6025ZM145.296 6.94937C144.033 6.94937 142.873 7.6419 142.682 9.44248H147.72C147.72 7.91891 146.716 6.94937 145.296 6.94937Z" fill="black"/>
<path d="M58.4877 28.5444H67.5183V38.9324H64.1664V36.7163C63.4462 37.9628 61.6733 39.431 58.4877 39.431C53.0582 39.431 49.5679 35.1096 49.5679 29.4032C49.5679 24.0845 52.5873 19.0983 59.0694 19.0983C63.6401 19.0983 67.0196 21.5637 67.5183 25.9959H63.834C63.6124 23.8075 61.5348 22.4778 58.9586 22.4778C55.025 22.4778 53.169 25.5527 53.169 29.2923C53.169 33.2813 55.2743 36.0514 59.0417 36.0514C61.6733 36.0514 63.7232 34.7218 64.0556 31.8963H58.4877V28.5444ZM83.2826 32.8381H73.3379C73.421 35.165 74.8892 36.2731 76.9391 36.2731C78.2964 36.2731 79.4599 35.7744 79.9585 34.6387H83.1718C82.4516 37.6581 79.7092 39.2371 76.8006 39.2371C73.1994 39.2371 70.0138 36.8548 70.0138 31.8963C70.0138 26.91 73.2548 24.4169 76.8837 24.4169C80.3463 24.4169 83.2826 26.7161 83.2826 31.4253V32.8381ZM76.856 27.381C75.2216 27.381 73.7257 28.2397 73.421 30.3173H79.9031C79.9031 28.4336 78.7119 27.381 76.856 27.381ZM91.7408 24.4169C95.9237 24.4169 98.8323 27.1871 98.8323 31.8132C98.8323 36.467 95.9237 39.2371 91.7408 39.2371C87.5856 39.2371 84.677 36.467 84.677 31.8132C84.677 27.1871 87.5856 24.4169 91.7408 24.4169ZM91.7131 27.6026C89.497 27.6026 88.1951 29.1538 88.1951 31.8132C88.1951 34.6941 89.7186 36.0514 91.7962 36.0514C94.0123 36.0514 95.3143 34.5002 95.3143 31.8132C95.3143 28.9599 93.7907 27.6026 91.7131 27.6026ZM108.932 24.4169C112.173 24.4169 113.835 26.3283 113.835 29.7356V38.9324H110.4V30.0403C110.4 28.4336 109.43 27.4918 107.741 27.4918C105.691 27.4918 104.61 28.9045 104.61 31.2314V38.9324H101.175V24.6662H104.583V26.7438C105.386 25.4142 106.549 24.4169 108.932 24.4169ZM129.328 32.8381H119.384C119.467 35.165 120.935 36.2731 122.985 36.2731C124.342 36.2731 125.506 35.7744 126.004 34.6387H129.218C128.497 37.6581 125.755 39.2371 122.846 39.2371C119.245 39.2371 116.059 36.8548 116.059 31.8963C116.059 26.91 119.3 24.4169 122.929 24.4169C126.392 24.4169 129.328 26.7161 129.328 31.4253V32.8381ZM122.902 27.381C121.267 27.381 119.771 28.2397 119.467 30.3173H125.949C125.949 28.4336 124.758 27.381 122.902 27.381ZM144.019 33.8631C143.576 37.3534 141.028 39.2371 137.565 39.2371C132.8 39.2371 130.723 35.6913 130.723 31.9517C130.723 28.0181 133.022 24.4169 137.814 24.4169C141.332 24.4169 143.798 26.4391 143.936 29.8187H140.557C140.474 28.4336 139.421 27.5472 137.759 27.5472C135.183 27.5472 134.185 29.6248 134.185 31.924C134.185 34.1401 135.127 36.0514 137.593 36.0514C139.31 36.0514 140.363 35.1373 140.584 33.8631H144.019ZM153.806 35.8852V38.9324H151.563C148.876 38.9324 147.186 38.129 147.186 34.3063V27.7688H144.582V24.6662H147.186V21.4529L150.621 20.5111V24.6662H153.474V27.7688H150.621V34.1678C150.621 35.165 150.898 35.8852 152.338 35.8852H153.806ZM155.685 22.7826V18.8767H159.342V22.7826H155.685ZM155.796 38.9324V24.6662H159.231V38.9324H155.796ZM168.575 24.4169C172.758 24.4169 175.666 27.1871 175.666 31.8132C175.666 36.467 172.758 39.2371 168.575 39.2371C164.42 39.2371 161.511 36.467 161.511 31.8132C161.511 27.1871 164.42 24.4169 168.575 24.4169ZM168.547 27.6026C166.331 27.6026 165.029 29.1538 165.029 31.8132C165.029 34.6941 166.553 36.0514 168.63 36.0514C170.846 36.0514 172.148 34.5002 172.148 31.8132C172.148 28.9599 170.625 27.6026 168.547 27.6026ZM185.766 24.4169C189.007 24.4169 190.669 26.3283 190.669 29.7356V38.9324H187.234V30.0403C187.234 28.4336 186.265 27.4918 184.575 27.4918C182.525 27.4918 181.444 28.9045 181.444 31.2314V38.9324H178.01V24.6662H181.417V26.7438C182.22 25.4142 183.384 24.4169 185.766 24.4169Z" fill="black"/>
</svg>
