<svg width="120" height="120" viewBox="0 0 120 120" fill="none" xmlns="http://www.w3.org/2000/svg">
<rect width="120" height="120" rx="27.375" fill="url(#paint0_linear_8_44318)"/>
<path d="M79.4883 67.821C75.4039 67.821 72.0929 64.51 72.0929 60.4256C72.0929 56.3413 75.4039 53.0303 79.4883 53.0303C83.5726 53.0303 86.8836 56.3413 86.8836 60.4256C86.8836 64.51 83.5726 67.821 79.4883 67.821Z" fill="#26E1BF"/>
<path d="M62.5846 85.781H62.6048C62.6048 85.5788 62.6009 85.377 62.5933 85.1758C62.5875 85.3772 62.5846 85.5789 62.5846 85.781Z" fill="#26E1BF"/>
<path d="M73.1287 67.4941C72.4011 67.9153 71.6972 68.3807 71.0213 68.8886C74.4091 73.7587 76.2777 79.5716 76.3182 85.5816C76.3691 83.6916 77.142 81.8898 78.4825 80.5493C79.87 79.1618 81.7519 78.3823 83.7142 78.3823C85.6764 78.3823 87.5583 79.1618 88.9459 80.5493C90.3334 81.9368 91.1129 83.8187 91.1129 85.781H104.844C104.844 80.1771 102.618 74.8027 98.6551 70.8401C95.6692 67.8542 91.8816 65.8543 87.7983 65.0498C86.1735 67.9633 83.061 69.9338 79.4883 69.9338C77.043 69.9338 74.8134 69.0108 73.1287 67.4941Z" fill="#26E1BF"/>
<path d="M62.6039 85.7816H76.2985C76.2985 85.6208 76.3037 85.4605 76.3141 85.3009C76.2181 79.391 74.3554 73.6833 71.0205 68.8892C70.2307 69.4826 69.4791 70.1341 68.7725 70.8408C64.9528 74.6604 62.7466 79.792 62.5924 85.1763C62.6001 85.3776 62.6039 85.5794 62.6039 85.7816Z" fill="#26E1BF"/>
<path d="M62.6039 85.7816H76.2985C76.2985 85.6208 76.3037 85.4605 76.3141 85.3009C76.2181 79.391 74.3554 73.6833 71.0205 68.8892C70.2307 69.4826 69.4791 70.1341 68.7725 70.8408C64.9528 74.6604 62.7466 79.792 62.5924 85.1763C62.6001 85.3776 62.6039 85.5794 62.6039 85.7816Z" fill="white" fill-opacity="0.6"/>
<path d="M74.2058 42.9939C74.2058 49.1204 69.2393 54.0869 63.1127 54.0869C56.9861 54.0869 52.0197 49.1204 52.0197 42.9939C52.0197 36.8674 56.9861 31.9009 63.1127 31.9009C69.2393 31.9009 74.2058 36.8674 74.2058 42.9939Z" fill="white"/>
<path d="M71.0206 68.8879C70.0268 67.4592 68.9022 66.1117 67.6546 64.8641C62.1068 59.3165 54.5827 56.1999 46.7373 56.1999C38.8919 56.1999 31.3678 59.3165 25.82 64.8641C20.2724 70.4117 17.1559 77.9358 17.1559 85.7813H30.87C30.87 81.573 32.5416 77.5371 35.5174 74.5614C38.4931 71.5857 42.5289 69.914 46.7373 69.914C50.9457 69.914 54.9815 71.5857 57.9572 74.5614C60.7898 77.3938 62.4406 81.1869 62.593 85.1749C62.7805 78.5173 66.0477 72.6303 71.0206 68.8879Z" fill="white"/>
<defs>
<linearGradient id="paint0_linear_8_44318" x1="60" y1="0" x2="60" y2="120" gradientUnits="userSpaceOnUse">
<stop stop-color="#986CE1"/>
<stop offset="1" stop-color="#9264E0"/>
</linearGradient>
</defs>
</svg>
